PathFileType	3	(X/Y/Z)	results
DataRate	CameraRate	NumFrames	NumMarkers	Units	OrigDataRate	OrigDataStartFrame	OrigNumFrames
30.0	30.0	4	85	mm	30.0	99	262
Frame#	Time	head			nose			neck			shoulder_r			elbow_r			wrist_r			shoulder_l			elbow_l			wrist_l			hip_r			knee_r			ankle_r			hip_l			knee_l			ankle_l			heel_r			heel_l			mtoe_r			ltoe_r			mtoe_l			ltoe_l			asis_l			asis_r			psi_r			psi_l			mhnd_r			lhnd_r			mhnd_l			lhnd_l			l_lat_knee			r_med_wrist			l_lat_ankle			r_med_ankle			r_lat_knee			xiphoid			l_med_ankle			r_med_knee			l_med_elbow			navel			r_lat_elbow			r_lat_wrist			l_med_wrist			l_lat_elbow			l_med_knee			r_med_elbow			r_lat_ankle			l_lat_wrist			chin			T10			r_eye			l_eye			l_ear			r_ear			spinal_cord_8			spinal_cord_12			spinal_cord_27			spinal_cord_33			up_arm_r_0			up_arm_r_5			up_arm_l_0			up_arm_l_5			front_torso_11			front_torso_7			front_torso_4			front_torso_1			front_torso_10			thigh_r_2			thigh_r_3			thigh_l_1			thigh_l_5			shank_l_0			shank_l_4			shank_r_1			shank_r_2			foot_r_1			foot_r_3			foot_r_5			foot_r_6			foot_r_7			foot_l_1			foot_l_7			foot_l_0			foot_l_4			foot_l_5			foot_l_6			
		X1	Y1	Z1	X2	Y2	Z2	X3	Y3	Z3	X4	Y4	Z4	X5	Y5	Z5	X6	Y6	Z6	X7	Y7	Z7	X8	Y8	Z8	X9	Y9	Z9	X10	Y10	Z10	X11	Y11	Z11	X12	Y12	Z12	X13	Y13	Z13	X14	Y14	Z14	X15	Y15	Z15	X16	Y16	Z16	X17	Y17	Z17	X18	Y18	Z18	X19	Y19	Z19	X20	Y20	Z20	X21	Y21	Z21	X22	Y22	Z22	X23	Y23	Z23	X24	Y24	Z24	X25	Y25	Z25	X26	Y26	Z26	X27	Y27	Z27	X28	Y28	Z28	X29	Y29	Z29	X30	Y30	Z30	X31	Y31	Z31	X32	Y32	Z32	X33	Y33	Z33	X34	Y34	Z34	X35	Y35	Z35	X36	Y36	Z36	X37	Y37	Z37	X38	Y38	Z38	X39	Y39	Z39	X40	Y40	Z40	X41	Y41	Z41	X42	Y42	Z42	X43	Y43	Z43	X44	Y44	Z44	X45	Y45	Z45	X46	Y46	Z46	X47	Y47	Z47	X48	Y48	Z48	X49	Y49	Z49	X50	Y50	Z50	X51	Y51	Z51	X52	Y52	Z52	X53	Y53	Z53	X54	Y54	Z54	X55	Y55	Z55	X56	Y56	Z56	X57	Y57	Z57	X58	Y58	Z58	X59	Y59	Z59	X60	Y60	Z60	X61	Y61	Z61	X62	Y62	Z62	X63	Y63	Z63	X64	Y64	Z64	X65	Y65	Z65	X66	Y66	Z66	X67	Y67	Z67	X68	Y68	Z68	X69	Y69	Z69	X70	Y70	Z70	X71	Y71	Z71	X72	Y72	Z72	X73	Y73	Z73	X74	Y74	Z74	X75	Y75	Z75	X76	Y76	Z76	X77	Y77	Z77	X78	Y78	Z78	X79	Y79	Z79	X80	Y80	Z80	X81	Y81	Z81	X82	Y82	Z82	X83	Y83	Z83	X84	Y84	Z84	X85	Y85	Z85	
99	3.3	83.08847330903602	1180.251121538256	-446.2199453789116	90.38318657733456	979.5181991076055	-486.0293671347382	88.6699202271388	944.2160005381126	-289.9389837040327	236.31307141551244	874.279213348807	-333.3180721194716	239.28781184658172	682.4783681208737	-506.58233263187225	128.83709666660408	871.5732712318645	-573.9483258484748	-39.056598260387695	873.9659156290388	-322.14664450544814	-81.73168101845292	689.0371940430452	-486.1630338224977	48.30256743377312	867.2238166394501	-560.4679805849254	164.81415905638664	548.9613916697994	49.855678634582794	278.11590350096196	422.6075276615818	-315.9117484454049	262.2051488240037	113.0754694968506	-99.40971732537356	-35.02778803892753	556.0786607839224	54.56129424354087	-114.58604100772936	423.57465829063074	-310.25508332414717	-96.5830117190267	121.04001579220042	-88.69712692935519	254.24790470059273	64.14967853078791	-61.99060630477137	-97.49671575268256	67.13596045839677	-40.072556004324575	291.0871841621587	33.63122681113195	-286.289088892554	344.80247956747803	25.931765826510112	-213.41951830831545	-99.57148867142705	45.903299872180945	-269.7954089886719	-176.8513665413944	34.86637593497784	-207.6293457396647	-80.82049490135643	569.0726848563945	-20.772054530543482	211.91340296134217	559.103793105725	-23.11259358248616	119.4903028346814	678.9358690313387	57.35462871438635	19.557939797169958	677.8550316289421	56.009321236927704	84.0063328312751	910.8613431668093	-616.707392630134	99.45554597990525	952.3806240451927	-586.5990319444948	94.25376044765842	905.4936369163247	-607.7810392191604	91.37899303441797	943.6587261122713	-570.4861467713647	-157.5063708298776	436.5394255185703	-288.6460292576058	127.74286628279363	852.5078899386318	-595.5409916506367	-146.51313131163158	111.63087720330928	-72.89154074409402	234.59571107911785	92.86028785423889	-114.25739736006416	317.2290452419799	425.2744532321669	-298.40651878692785	93.11145761317367	750.9525932247846	-251.1200852718583	-67.79518638954883	104.28301909936188	-95.16977974453397	235.40805442744895	423.9574690545914	-318.8178961671569	-61.352043993709806	674.5549167481881	-462.40052274653175	84.43926728659787	572.0697153522176	-118.53317126553223	270.1297910111996	703.4531935260401	-519.6507397758398	133.46916892837274	876.5249309799273	-542.8919520621739	38.96149073950534	850.2562943814314	-586.4208541401061	-109.31963459709792	714.7726615183549	-491.98330069564	-66.28723902327499	438.87490587786726	-304.34660698560833	211.20698594284164	671.5641910113104	-486.0981104655633	305.61935691341205	104.30149290929491	-77.77275651774207	37.88583910050256	876.6335776761107	-532.6374044815394	96.11423136374239	920.6197438561906	-439.51700305095386	75.07264803770502	888.3455187152764	-108.59970890963096	119.97569432253907	1009.1482623763799	-499.3023570652609	53.69287112922301	1005.1992969561472	-496.14599952051634	5.631874292033268	1037.6137468179982	-402.18943544530094	170.29119840260014	1045.6784854652449	-406.5468113033381	85.9865838946918	1022.0625420340618	-291.4389920314637	76.35013819670658	965.5009781453293	-174.7460201684417	82.3286473868482	761.2739132778426	-19.993926918890416	75.86469775098007	872.3375567135926	-112.24816972117712	222.60472001949773	808.2963510525987	-450.98228432296634	266.3399987308869	741.3629676723161	-415.89616958857994	-71.33230326866003	849.2186606455309	-363.21662328367296	-57.43815434497635	713.8473530838419	-413.5505936339678	125.90246084058029	621.1543109415653	-102.5162894840846	93.97302497963486	663.729249707155	-217.26232934329897	36.020204232469695	779.9212513273637	-290.7801898487978	19.669670029453293	640.3930866438632	-137.7695634346643	170.54985405037928	811.3126080381762	-311.85893127843354	206.9772118266547	481.70956125388693	-146.2636442850159	308.66596229645745	474.33139327520735	-151.67595213769806	-44.33439892540759	457.6990768255852	-198.30193260526337	-147.54685027180315	554.130057939617	-31.844835246199487	-166.58109154772325	188.76686420095731	-144.3166424616272	-61.31209680935601	303.8717130676499	-232.21404987914207	324.200929997809	300.11880893325696	-204.62787520179725	234.88079115633616	251.8761533024117	-218.61805082493504	309.66756590960597	24.91200731682617	-263.21739924269514	330.8184346351878	24.995464164876662	-241.97534220301148	265.74347783923594	54.57702306206837	-207.18218837251385	300.8785766637625	57.43804056647726	-187.19934455855167	327.2812276723791	40.756869539535614	-168.17227152103112	-147.78649186678322	33.87007846797068	-239.752027143081	-161.80604848287567	73.46716396779301	-134.8462220408297	-162.49095619815625	34.069639018022734	-230.93139962345847	-129.68680652562963	33.65224718813392	-249.93068823150583	-134.15503722711307	54.71824504220241	-191.7390973905136	-101.94759864003781	70.59915089888096	-164.38705775873632	
100	3.3333333333333335	81.4580502997426	1154.297356088426	-448.25872579215644	88.621826387227	953.9599975388338	-490.035898162842	88.67603759503506	920.2934281266868	-295.68014989988893	239.07668137408874	852.1094170575882	-337.05914342915713	242.19559190904684	659.1054504748195	-508.9796441324863	125.741223998773	845.8094593333725	-572.8107743053641	-37.31599685802062	851.9509071101655	-326.34119253456726	-91.26588174881519	667.4162961148049	-487.45468664819083	46.25499565571141	841.1920811353214	-558.6627492156308	163.59767541410127	530.0268129475254	48.525984267043306	277.5267452674275	417.60533200459986	-323.23953082731543	260.2473792150136	112.63173993974168	-100.46406476996872	-36.29842242885942	535.1560811876108	53.51024260978635	-115.70845504925056	418.57934288790716	-317.8780048571259	-95.97498480769644	121.06992793809674	-89.75964701298706	252.07178676654053	64.29505952543401	-62.1683610660569	-96.66197394882757	67.69082841231854	-40.324203762141245	291.0786396223584	31.384785109483907	-285.7610643592225	344.3755711722669	25.580373351760215	-212.4102983879191	-99.10527526020314	45.71690787360102	-269.973712440827	-176.37870099805008	35.31978547963976	-207.68944352696175	-82.35787654830875	546.5005559245304	-21.92688140792722	210.45877561087622	539.5146790104363	-24.683260501430535	116.94605013409631	659.6283080827772	54.08739397608175	17.027952009269953	657.4964732779248	52.95417226666219	78.77320333138607	884.1270721831472	-614.1321169087392	94.28939612631324	925.9769203262731	-584.5199534231987	94.05021815911516	878.1669106220207	-605.1718396284717	92.37842389221903	915.9827601146973	-567.4503079153526	-158.46367902592644	431.9709727703988	-295.07315113785984	124.36741143214468	826.7137972324781	-594.3606617387891	-145.91679932520034	111.41760298153625	-74.13872924837736	232.42884793216945	92.3264000965469	-114.78924242900146	316.246999632027	420.89890883671444	-304.4677816610445	90.25678795974645	727.3603064473309	-255.03915429766906	-66.94592517181509	104.51601529054288	-95.65139824193174	234.4128404640959	419.99952965491724	-324.84901867253967	-71.3510013910898	652.2154583049313	-463.746988241213	79.65128796136646	549.9093453690076	-120.68045369024037	272.1432691686194	680.7357443130533	-523.023192832035	131.24399506727875	850.8736581509845	-541.9150338002947	36.46252916643701	824.905922895096	-584.8843590248422	-117.59190507142547	694.4394101566986	-493.2836470015454	-67.1848872172824	434.44372906619355	-310.4015646013555	214.9547466223889	647.658199472318	-487.66879722937443	303.685749883977	103.9743974040927	-78.8286175588158	35.99373456872325	850.6828429499217	-530.8019387596199	93.89248834801425	894.5841097556292	-444.0794297338965	75.50824924397935	866.3760334821989	-113.71901933140381	118.37160808867857	983.6581129583186	-502.79528117708895	52.05954052716225	979.8208817492628	-500.1580622476104	3.386501091820926	1011.3918081341784	-406.2293459305286	168.08957413976012	1019.1440059573438	-409.3149427676123	87.2493844952655	998.1556957298428	-297.9086665283639	77.55395626246147	942.8691322398042	-180.61111392687985	81.34762740978458	740.049318255006	-23.95104219179835	76.01267168518791	850.3233608451824	-117.21912157257196	223.8725600582548	784.898415356637	-453.8411617095165	270.1891008785107	719.3421413534973	-419.4748868587252	-71.29987721783266	828.3639835698016	-366.71003984823994	-64.86243159020377	691.8562885643574	-415.4558638190298	122.02501806784024	598.459266564833	-105.43556619939432	89.94785883029006	640.459752070589	-220.35198374359888	33.3538702853729	756.8808397070756	-294.5627464433918	15.86249987038943	619.0969034492982	-140.10453405365115	168.21767941218457	785.8670984675432	-316.9124016400699	205.8819390962904	470.7644340536045	-150.12781516384945	307.59889729666185	464.0885213847852	-155.90925232305247	-45.43888714899897	448.33246513009504	-203.556049692014	-148.56514279147098	537.8042013222656	-33.20496131077169	-166.3064523798995	186.7730280532155	-147.35109592282762	-61.67830870296961	301.1984321953618	-236.88555942262948	323.174914557595	297.0487520728812	-209.68878445088504	233.44587122386002	249.1974488722051	-222.34254291832133	309.63219541431465	23.293722327368197	-262.4402901803753	330.6209295931385	24.02219575985389	-241.05025595416862	264.80088548447014	52.962304532287604	-207.1301427463923	299.73396671033186	56.68785708786838	-186.93670986126992	326.27262065031323	40.71483741505418	-167.4956850664238	-147.35472696488083	34.05429792061417	-239.83961742383008	-161.0372757531396	74.07363332743154	-135.0496095786297	-162.04826666193534	34.36568276827969	-231.00403616545168	-129.26759667988378	33.70104747232276	-250.03678044314992	-133.554005602209	54.982635559797544	-191.90999399472827	-101.2279813065026	70.77133112978602	-164.6446022201939	
101	3.3666666666666667	82.14815593360936	1129.0522363865969	-451.6166855675623	85.31756065733502	928.446296861131	-492.5913234616537	88.77551633374443	897.7173269071425	-300.3525165401391	243.3016465942374	829.6131425439697	-339.93545264889593	240.92985251405895	635.1256960930835	-510.18798580933367	123.46602821898216	821.591254614448	-572.8558832981907	-41.55662919749274	834.916652634521	-325.1545143857122	-103.35628923521156	651.2225017392047	-484.3978240301391	40.8365892937608	818.5928396837969	-557.7203111269238	163.03511227630003	510.30826956200036	46.022120127261935	278.0113119387009	411.64865160891725	-331.21504181620253	257.7302389306694	112.21776846430382	-101.28852981277178	-36.860727225455065	515.1431215005323	51.30224449791289	-115.69142195503392	413.17437507412916	-325.5393898829369	-95.80205636423027	121.3324057503874	-90.22699094336755	249.17905011454476	64.49453938405833	-62.08335693726452	-96.56985942267701	68.55854390917146	-39.891926280216985	290.6114877398976	29.901611916406235	-284.98468079926676	343.2828549231232	25.36044406402075	-211.094939626002	-98.95419536778465	45.824605454738894	-269.46806338064124	-176.32481133635187	36.02539386635199	-207.20751511480307	-83.03937946027784	526.7463346755793	-24.022569625268844	209.78243304568483	520.1723405425913	-27.210140101576723	116.2149245712806	639.8210053695688	52.20048944417753	16.298353600967527	637.5575145233322	51.19515433402473	75.55992289269264	859.657128311674	-613.3241684928478	91.98535460680908	901.7485867341188	-584.5568854160099	89.93025034225202	853.1506660831723	-604.7329251805655	89.91614889121931	891.3673081961747	-567.380075350021	-158.29166064559197	427.18310825725905	-301.6842473032367	121.46487826554569	802.2834622897147	-594.1663003481192	-145.75629324128727	111.95067263141728	-74.48143322406786	229.93348515382993	91.68758230460311	-115.33275138475138	316.25206856547715	415.7249134372004	-310.9006550966667	87.59622256171059	705.1482849514532	-258.0068900521111	-66.72439534042171	104.70514551825627	-95.65422839787819	234.4187977813505	415.09588912662554	-331.2955915501638	-83.9989282947594	635.4522786452231	-460.6004389946372	75.76856457522209	529.0881755686731	-121.93145127849844	270.57599529631796	656.5004419254443	-525.2272910986195	129.7927161959039	826.9481704253353	-542.1679401821881	30.30516096817046	802.462650230424	-583.7512576478823	-128.5916193908943	679.2278864501244	-490.41126850330625	-66.92211915763832	429.42569993322996	-316.49877692479504	214.2301320006602	623.9839287688453	-488.04659135070233	300.96587867771035	103.90593192606818	-79.11812090345876	31.06159996966687	828.7608135344664	-529.923644246369	90.12042146136496	869.1816903975545	-446.44035525053397	77.1503747087683	845.6279648223069	-117.75491641115838	115.41964158555349	957.5676320200844	-505.84432266969003	49.08833862830296	954.8973425394871	-502.380600192337	2.1286735443813014	987.7067449801548	-408.00515382866075	166.89119989201424	992.575421193677	-413.1360069583854	88.65489121467563	975.5701679791557	-303.26025248627604	79.60196053644815	921.4867105864339	-185.35204513819386	82.036842265376	720.0086673625756	-26.943344583917824	77.33185661978344	829.5389940034834	-121.11728741925083	224.64467931294885	761.468808831019	-455.67132091344473	271.60044003536035	696.0043277030729	-422.0046295482731	-76.58007211670689	812.344373429068	-365.213740256905	-75.7796717154486	675.2440610521244	-412.69858585885896	119.17161653059676	577.0301899243175	-107.69162029818379	86.26624438968747	618.5725414145962	-222.5403793928766	30.67805706577368	735.3008903786258	-297.02818016953347	12.91897067633148	599.1950120169661	-141.11953630932555	165.70424314169068	761.7564412268536	-321.4410906810022	205.62626778982067	458.95742247843754	-154.75737213094797	307.381046749326	453.14220410997916	-160.79728979205865	-45.561129540916546	438.80799295776995	-209.0863462435149	-148.68386584580162	522.311708987475	-35.72966146044911	-166.15209576839192	185.46183480985962	-149.5437336680907	-61.58056308138569	297.91395725966066	-241.60869130451434	322.2780614699996	293.6816667034824	-214.44320580565034	232.44156725255948	245.9100668505791	-226.62698983018453	309.03249776541685	22.2300843985104	-261.4183426672607	329.8124848864446	23.385162209378052	-239.84407255978724	263.37546003251475	51.9350100376874	-206.8075760779506	298.07761427118584	56.225297634131145	-186.33006253264244	324.60292732031314	40.72181948945196	-166.49471810530082	-147.28386079469624	34.50596348580955	-239.33134944376826	-160.84239277636786	74.94587963206189	-134.68678683046443	-161.98216228791617	34.920879105416034	-230.5079519253122	-129.19121872486687	34.02755528385838	-249.5136198189649	-133.41348718009868	55.5258625438557	-191.46193741576963	-101.02863974165614	71.24363012493164	-164.2253851037882	
102	3.4	82.57144762405562	1104.792089949286	-454.05829856404944	82.1941612999517	904.0962431430929	-494.7122501496483	89.9895309794392	877.8960997554502	-303.77998989105987	243.4660760322098	800.2041464345208	-347.2929726631789	227.48841450739937	607.8804330083763	-519.2616351219764	120.99502982012886	803.0385047544139	-574.6412880515533	-46.76127070795703	816.7558323096099	-318.5764327002828	-116.15981838144204	639.7655664679311	-482.22073629360216	34.85851933561815	799.4620087205953	-558.8439139961324	167.00734749912047	496.05972918356935	47.293004569360235	275.90303207384466	407.6916506504148	-335.6546904950686	255.06021610453604	111.4053316630399	-101.73938353854442	-32.938390658242	492.52311106101644	51.62847244620573	-115.65607274690241	410.5615995411096	-330.2905024818427	-96.08788388943255	122.31813221942001	-90.557241234539	246.46914225257296	63.95904854568736	-62.05242605481802	-97.00847018614367	70.04698638380992	-39.55808668910316	290.3177326139436	29.078374336539817	-284.44612512884794	342.4368258748448	25.714637481618414	-210.103174090447	-99.14556669538047	46.12900632011009	-269.0163242611819	-176.4107546691164	35.83025571076486	-206.70549778020813	-79.12726653716683	497.0967588090988	-24.441229750003124	213.71862956216214	503.0850502725253	-26.28876508368812	114.59346092310544	623.535335178817	44.722920786391335	14.876029730539308	616.8610661799719	43.56391533031912	74.72973850994956	845.1068560131246	-613.000959802245	94.54587464837509	885.3279400999772	-583.6986152174147	84.57454395985845	831.4791373279974	-606.9878354405806	87.45474086636646	869.5741507774878	-569.6217848094218	-157.673898394475	425.50185588875803	-304.785757600863	117.23266267975896	784.4299946219438	-596.3322369608074	-145.8304006226399	114.24369136546831	-73.47360227443673	227.35683841181293	90.64106578680581	-115.62305563494793	314.161707198941	412.2919420943431	-314.8449065797092	85.34094725971744	684.903151814962	-263.6615221880547	-67.49553401691048	104.99988096430867	-96.38705787507688	231.97600728887264	411.81901857566504	-333.77425906180264	-97.45460742810182	622.6270182810915	-458.8517794752235	71.75685049483879	507.5204666846332	-129.48091264334437	258.0605460160424	627.7001041124918	-534.5743637224375	128.38416744434832	807.2193523912823	-544.0080619945264	22.87994326528367	783.9560861172768	-584.627324373793	-140.22434667700745	668.9258720915418	-487.49899634349794	-66.33444930037405	426.4599238511646	-319.92113873308426	200.54520426930077	598.0394904260662	-496.80112145173564	298.21008314921136	103.46586949072756	-79.26744288755327	26.29274688111019	810.0779708793019	-530.8167541706152	86.32700358701766	844.8344516512782	-448.4928537686896	79.9115458760905	823.8888295823543	-121.64822956964896	112.68166272289534	932.7000543106825	-508.2090523387672	46.33946184919357	931.1209111492857	-504.3118403319503	0.5364923006923178	964.8442843791878	-409.6904157591472	165.31979892077746	967.0083868065678	-415.89511320544875	91.47778313347654	955.7633930116087	-305.78101168538774	82.99076945257481	900.4799940582728	-188.38834719394723	83.44934241203018	697.1204535617435	-32.38407173482927	79.70301348737352	807.8408453245785	-125.19959156106505	219.21027942078047	734.3863895863063	-463.33694304716886	262.9029516866045	666.0440931212252	-431.0233427216165	-82.70676303895425	796.6439229676084	-359.12669291578516	-87.57734186126386	660.8466787406517	-409.9925240679367	116.36877096735223	554.3656759793407	-115.3268544353647	82.68974197360964	597.9577218111478	-229.18740289224078	28.51513406493582	716.7095575824102	-301.4860878406287	10.136479359491426	579.1576545691556	-146.92412766618634	163.70376114758466	740.6083107022494	-327.5790371441816	206.1872509902882	450.5708287748811	-155.5838438822858	307.84138217072797	445.4438528529918	-163.61404580813655	-44.355899997555454	429.84593071384734	-212.27715193988584	-144.90401895392887	506.6376155148494	-34.36475098787174	-166.51748198090976	186.90712899824328	-149.27794363931372	-61.91173438233084	295.60760929868115	-245.7065953376946	319.8322864406376	291.4043137534491	-217.08449097086142	230.12285599122058	243.32906368565136	-229.00734542365385	308.6632934471426	21.809631927898298	-260.69398797695425	329.2408777562537	23.395966358663234	-238.9537541409383	262.07578749515494	51.00470942348569	-206.59652714518384	296.5315171070117	55.94743346053568	-185.85172506198293	323.13825846779025	40.963452795590854	-165.72829113332122	-147.3543399564559	34.45442875174565	-238.82181875979316	-161.3415529473798	75.27774153863479	-134.38274514367023	-162.0564905778657	34.759103351521425	-230.00033895086585	-129.25732297724932	34.115148791839914	-249.00190063723278	-133.7077293769913	55.860960834062475	-191.05954879252238	-101.49113790260459	72.05643549016057	-163.90344123596367	
